<?xml version="1.0" encoding="utf-8"?>
<!-- Generator: Adobe Illustrator 17.0.0, SVG Export Plug-In . SVG Version: 6.00 Build 0)  -->
<!DOCTYPE svg PUBLIC "-//W3C//DTD SVG 1.1//EN" "http://www.w3.org/Graphics/SVG/1.1/DTD/svg11.dtd">
<svg version="1.1" id="Your_Icon" xmlns="http://www.w3.org/2000/svg" xmlns:xlink="http://www.w3.org/1999/xlink" x="0px" y="0px"
	 width="160px" height="100px" viewBox="-30 0 160 100" enable-background="new -30 0 160 100" xml:space="preserve">
<path fill="#C7C8CC" d="M71.348,75.118c-8.229-4.113-5.06-0.965-15.162-5.174c-10.101-4.204-12.494-5.576-12.494-5.576l-0.089-9.64
	c0,0,3.783-2.884,4.964-12.002c2.361,0.686,3.161-2.781,3.288-4.997c0.139-2.141,1.397-8.815-1.493-8.219
	c0.591-4.456,1.055-8.484,0.845-10.617c-0.723-7.486-5.873-15.302-18.874-15.872c-11.053,0.571-18.229,8.392-18.952,15.878
	c-0.208,2.133,0.216,6.157,0.807,10.621c-2.888-0.603-1.645,6.082-1.517,8.222c0.139,2.216,0.921,5.696,3.288,5.008
	c1.175,9.117,4.959,12.025,4.959,12.025l-0.095,9.688c0,0-2.393,1.468-12.494,5.67c-10.101,4.21-6.933,0.871-15.162,4.984
	C-19.836,81.62-19.836,99.5-19.836,99.5h52.169H84.35C84.35,99.5,84.35,81.62,71.348,75.118z"/>
<path fill="#C7C8CC" d="M104.393,79.916c-6.61-3.304-4.065-0.775-12.178-4.156c-8.114-3.377-10.036-4.479-10.036-4.479l-0.071-7.743
	c0,0,3.039-2.317,3.987-9.64c1.896,0.551,2.539-2.234,2.641-4.014c0.112-1.719,1.122-7.08-1.199-6.602
	c0.475-3.579,0.847-6.815,0.678-8.528c-0.581-6.013-4.717-12.291-15.16-12.749c-8.878,0.459-14.642,6.741-15.223,12.754
	c-0.167,1.713,0.173,4.946,0.648,8.531c-2.32-0.485-1.321,4.885-1.219,6.604c0.112,1.78,0.74,4.575,2.641,4.023
	c0.944,7.323,3.983,9.659,3.983,9.659l-0.076,7.782c0,0-1.922,1.179-10.036,4.555c-8.114,3.382-5.569,0.7-12.178,4.003
	C31.15,85.138,31.15,99.5,31.15,99.5h41.904h41.782C114.836,99.5,114.836,85.138,104.393,79.916z"/>
</svg>
