<?xml version="1.0" encoding="utf-8"?>
<!-- Generator: Adobe Illustrator 17.0.0, SVG Export Plug-In . SVG Version: 6.00 Build 0)  -->
<!DOCTYPE svg PUBLIC "-//W3C//DTD SVG 1.1//EN" "http://www.w3.org/Graphics/SVG/1.1/DTD/svg11.dtd">
<svg version="1.1" id="Calque_1" xmlns="http://www.w3.org/2000/svg" xmlns:xlink="http://www.w3.org/1999/xlink" x="0px" y="0px"
	 width="390px" height="300px" viewBox="0 0 390 300" enable-background="new 0 0 390 300" xml:space="preserve">
<path fill="#C2C2C2" d="M342.722,9.24H10.66c-5.059,0-9.16,4.511-9.16,10.076v28.983V251.07v1.208c0,4.898,4.101,8.869,9.16,8.869
	h332.062c5.059,0,9.16-3.971,9.16-8.869v-1.208V48.299V19.316C351.882,13.751,347.781,9.24,342.722,9.24z"/>
<path fill="#F3F4F6" d="M351.882,243.664c0,5.565-4.101,10.076-9.16,10.076H10.66c-5.059,0-9.16-4.511-9.16-10.076V11.91
	c0-5.565,4.101-10.076,9.16-10.076h332.062c5.059,0,9.16,4.511,9.16,10.076V243.664z"/>
<path fill="#FFFFFF" d="M351.882,244.871c0,4.898-4.101,8.869-9.16,8.869H10.66c-5.059,0-9.16-3.971-9.16-8.869V40.893
	c0-4.898,4.101-8.869,9.16-8.869h332.062c5.059,0,9.16,3.971,9.16,8.869V244.871z"/>
<g>
	<path fill="#F3F4F6" d="M323.872,70.812c0,2.547-1.903,4.613-4.251,4.613H33.76c-2.348,0-4.251-2.065-4.251-4.613V59.28
		c0-2.547,1.903-4.613,4.251-4.613h285.861c2.348,0,4.251,2.065,4.251,4.613V70.812z"/>
	<path fill="#F3F4F6" d="M323.872,158.449c0,2.084-1.69,3.774-3.774,3.774H33.284c-2.084,0-3.774-1.69-3.774-3.774V88.633
		c0-2.084,1.69-3.774,3.774-3.774h286.815c2.084,0,3.774,1.69,3.774,3.774V158.449z"/>
	<path fill="#F3F4F6" d="M120.78,227.323c0,2.084-1.587,3.774-3.544,3.774H33.054c-1.958,0-3.544-1.69-3.544-3.774v-51.891
		c0-2.084,1.587-3.774,3.544-3.774h84.182c1.958,0,3.544,1.69,3.544,3.774V227.323z"/>
	<path fill="#F3F4F6" d="M222.685,227.323c0,2.084-1.587,3.774-3.544,3.774h-84.182c-1.958,0-3.544-1.69-3.544-3.774v-51.891
		c0-2.084,1.587-3.774,3.544-3.774h84.182c1.958,0,3.544,1.69,3.544,3.774V227.323z"/>
	<path fill="#F3F4F6" d="M323.872,227.323c0,2.084-1.587,3.774-3.544,3.774h-84.182c-1.958,0-3.544-1.69-3.544-3.774v-51.891
		c0-2.084,1.587-3.774,3.544-3.774h84.182c1.958,0,3.544,1.69,3.544,3.774V227.323z"/>
</g>
<g>
	<circle fill="#E5332A" cx="35.082" cy="17.312" r="4.629"/>
	<circle fill="#F9DF6E" cx="52.447" cy="17.312" r="4.629"/>
	<circle fill="#2DAB66" cx="69.813" cy="17.312" r="4.629"/>
</g>
<path fill="#FFFFFF" d="M301.838,20.897c0,1.618-1.825,2.93-4.075,2.93H93.318c-2.251,0-4.075-1.312-4.075-2.93V14.67
	c0-1.618,1.825-2.93,4.075-2.93h204.445c2.251,0,4.075,1.312,4.075,2.93V20.897z"/>
<g>
	<g>
		<path fill="#C6BD28" d="M315.569,275.122c0.145-0.254,0.289-0.507,0.434-0.761c0.048-0.086,0.104-0.097,0.171-0.02
			c1.888,0.391,3.757,0.867,5.689,1.047c2.592,0.243,5.167,0.362,7.779,0.17c3.57-0.263,7.021-0.966,10.399-2.109
			c0.202-0.068,0.439-0.035,0.66-0.049c-1.833,1.067-3.883,1.515-5.91,1.989c-6.268,1.466-12.541,1.43-18.801-0.08
			C315.844,275.274,315.71,275.186,315.569,275.122z"/>
		<path fill="#CEC538" d="M340.88,273.363c0.282-0.423,0.696-0.558,1.18-0.539C341.769,273.226,341.346,273.341,340.88,273.363z"/>
		<path fill="#D0C836" d="M342.414,272.606c0.287-0.308,0.648-0.393,1.052-0.353C343.162,272.508,342.844,272.723,342.414,272.606z"
			/>
		<g>
			<path fill="#F1E62F" d="M321.547,267.078c0.323,0.39,0.657,0.034,0.967-0.012c6.39-0.956,12.51-2.778,18.211-5.862
				c3.792-2.052,7.251-4.579,10.203-7.737c3.8-4.065,6.589-8.76,8.556-13.965c1.228-3.249,2.061-6.599,2.596-10.013
				c0.506-3.229,0.695-6.495,0.64-9.769c1.948,3.048,2.679,6.506,3.177,9.994c1.296,9.079-0.233,17.686-4.674,25.732
				c-3.476,6.298-8.336,11.294-14.455,15.06c-1.058,0.651-2.199,1.168-3.302,1.746c-0.362,0.085-0.708,0.215-1.052,0.354
				c-0.118,0.072-0.236,0.145-0.354,0.217c-0.386,0.196-0.824,0.277-1.18,0.539c-0.058,0.02-0.117,0.032-0.178,0.038
				c-2.512,0.898-5.062,1.669-7.703,2.078c-5.372,0.833-10.705,0.632-15.986-0.687c-0.216-0.054-0.429-0.12-0.625-0.227
				c-0.582-0.485-0.087-0.861,0.166-1.206c1.415-1.925,2.807-3.867,4.257-5.766C321.044,267.405,321.131,267.005,321.547,267.078z"
				/>
			<path fill="#FEF232" d="M362.696,219.442c0.008,0.093,0.016,0.185,0.025,0.278c0.368,1.152,0.278,2.343,0.219,3.512
				c-0.483,9.58-2.93,18.536-8.568,26.447c-3.64,5.107-8.354,8.981-13.86,11.921c-5.572,2.976-11.549,4.707-17.755,5.715
				c-0.414,0.067-0.874,0.309-1.262-0.1c-0.136-0.478,0.196-0.784,0.436-1.104c5.084-6.748,10.064-13.575,15.344-20.173
				c0.929-1.161,1.496-2.237,0.761-3.7c-0.223-0.443-0.304-0.97-0.453-1.459c-1.508-5.853-3.616-11.513-5.513-17.24
				c-0.125-0.378-0.519-0.791-0.047-1.212c2.19-0.462,4.429-0.468,6.643-0.696c4.087-0.422,8.175-0.825,12.262-1.253
				c3.612-0.378,7.22-0.787,10.829-1.191c0.223-0.025,0.445-0.024,0.663,0.042C362.536,219.271,362.627,219.342,362.696,219.442z"/>
			<path fill="#F13535" d="M362.696,219.442c-0.065-0.021-0.129-0.042-0.194-0.064c-1.347-0.656-2.281-1.826-3.405-2.756
				c-4.041-3.345-8.297-6.368-13.015-8.682c-4.758-2.334-9.759-3.87-15.063-4.385c-6.748-0.655-13.207,0.451-19.434,3.046
				c-4.923,2.052-9.385,4.86-13.448,8.312c-0.361,0.307-0.713,0.642-1.194,0.771c-0.439-0.006-0.555-0.372-0.728-0.666
				c-0.805-1.371-1.561-2.771-2.326-4.165c-0.048-0.137-0.054-0.275-0.015-0.415c0.952-1.355,2.141-2.515,3.175-3.803
				c0.583-0.386,0.869-1.087,1.501-1.423c0.388-0.078,0.54-0.434,0.791-0.673c3.419-3.041,7.33-5.267,11.575-6.913
				c19.94-7.73,42.674,1.479,51.626,20.905C362.669,218.801,363.062,219.073,362.696,219.442z"/>
			<path fill="#469D4B" d="M293.982,210.414c0.003,0.098,0.007,0.196,0.01,0.294c-0.002,0.153-0.033,0.299-0.114,0.431
				c-3.743,5.259-6.191,11.061-7.183,17.444c-1.301,8.369-0.085,16.37,3.574,24.019c2.077,4.341,4.857,8.173,8.306,11.488
				c4.72,4.536,10.25,7.757,16.526,9.669c0.351,0.107,0.777,0.11,0.974,0.52c0.037,0.405-0.083,0.715-0.506,0.843
				c-2.028-0.315-3.94-1.026-5.792-1.859c-13.764-6.193-22.137-16.714-24.498-31.618c-1.811-11.432,1.103-21.854,8.178-31.064
				c0.093-0.121,0.223-0.214,0.335-0.32C293.879,210.282,293.943,210.333,293.982,210.414z"/>
		</g>
		<path fill="#CB3737" d="M293.982,210.414c-0.063-0.051-0.126-0.102-0.189-0.153c0.919-1.359,2.004-2.569,3.259-3.626
			c-0.029,0.154-0.002,0.369-0.095,0.454C295.856,208.101,295.117,209.435,293.982,210.414z"/>
		<path fill="#D52F2F" d="M299.343,204.539c-0.152,0.355-0.239,0.788-0.791,0.673C298.766,204.928,299.006,204.677,299.343,204.539z
			"/>
		<path fill="#FE3838" d="M296.853,215.582c2.868-2.304,5.754-4.577,8.968-6.405c4.282-2.435,8.777-4.295,13.619-5.271
			c3.785-0.763,7.587-0.943,11.443-0.604c5.817,0.512,11.23,2.298,16.373,4.959c3.957,2.047,7.61,4.568,11.045,7.409
			c1.441,1.192,2.882,2.379,4.201,3.708c-10.167,1.205-20.35,2.248-30.549,3.142c-0.627,0.39-1.333,0.417-2.031,0.386
			c-1.564-0.07-2.825,0.449-3.894,1.634c-1.717,1.904-3.106,4.035-4.48,6.178c-1.134,1.769-2.232,3.562-3.302,5.371
			c-0.412,0.697-0.869,1.13-1.813,1.098c-1.299-0.045-2.274,2.032-1.697,3.43c0.28,0.679,0.732,1.268,1.047,1.93
			c0.389,0.817,0.293,1.007-0.629,1.026c-0.921,0.019-1.846,0.079-2.766-0.05c-0.415-0.114-0.582-0.47-0.769-0.801
			c-1.705-3.018-3.342-6.074-5.041-9.096c-2.62-4.659-5.243-9.317-7.826-13.998c-0.6-1.087-1.222-2.16-1.794-3.262
			C296.833,216.123,296.615,215.88,296.853,215.582z"/>
		<path fill="#5CD064" d="M296.853,215.582c1.912,3.477,3.819,6.958,5.739,10.431c2.535,4.585,5.045,9.185,7.645,13.733
			c0.691,1.209,1.228,2.518,2.123,3.609c1.068,0.65,2.024,1.456,2.763,2.444c0.499,0.667,1.081,1.047,1.846,1.232
			c0.868,0.21,1.754,0.335,2.639,0.417c3.777,0.35,7.558,0.088,11.337,0.006c1.121-0.024,1.965-0.483,2.617-1.459
			c1.024-1.534,2.212-2.955,3.342-4.415c0.238-0.308,0.404-0.745,0.915-0.721c0.308,1,0.612,2,0.926,2.998
			c0.142,0.451-0.165,0.709-0.397,1.006c-5.478,7.02-10.826,14.139-16.152,21.275c-0.227,0.305-0.433,0.625-0.648,0.939
			c-0.187,0.197-0.374,0.394-0.56,0.591c-3.747-1.496-7.28-3.406-10.588-5.701c-5.162-3.58-9.59-7.902-12.947-13.256
			c-3.047-4.859-4.868-10.149-5.661-15.823c-0.421-3.017-0.46-6.046-0.329-9.067c0.171-3.957,0.84-7.857,1.84-11.695
			c0.105-0.403,0.296-0.772,0.49-1.139c0.067-0.093,0.134-0.186,0.201-0.28c0.914,1.287,1.548,2.736,2.357,4.085
			C296.51,215.061,296.685,215.32,296.853,215.582z"/>
		<path fill="#ECECEC" d="M337.818,240.86c-1.478,1.918-2.977,3.82-4.422,5.762c-0.469,0.631-0.958,0.982-1.788,1.017
			c-4.744,0.201-9.488,0.531-14.212-0.263c-1.078-0.181-1.97-0.512-2.613-1.616c-0.554-0.953-1.752-1.453-2.424-2.405
			c1.144,0,2.288,0,3.587,0c-0.489-0.887-0.866-1.687-1.349-2.419c-0.734-1.113-0.213-2.085,0.276-3.043
			c0.419-0.82,1.1-1.202,2.065-0.908c0.46,0.14,0.595-0.293,0.768-0.569c1.219-1.942,2.409-3.903,3.634-5.841
			c1.362-2.155,2.77-4.275,4.471-6.191c1.016-1.145,2.2-1.774,3.758-1.724c0.791,0.025,1.587-0.09,2.382-0.142
			c2.038,5.923,4.183,11.811,5.804,17.869C337.797,240.541,337.798,240.703,337.818,240.86z"/>
		<path fill="#55C05C" d="M293.791,210.988c-0.46,2.295-1.08,4.557-1.432,6.876c-0.644,4.249-0.856,8.502-0.517,12.8
			c0.323,4.086,1.223,8.013,2.719,11.812c1.514,3.848,3.648,7.335,6.295,10.5c5.048,6.037,11.326,10.437,18.425,13.731
			c0.592,0.275,1.315,0.326,1.706,0.961c-1.435,1.96-2.871,3.92-4.302,5.883c-0.185,0.253-0.341,0.526-0.511,0.79
			c-0.057,0.002-0.114,0.009-0.171,0.02c-1.666-0.693-3.42-1.138-5.081-1.857c-3.642-1.577-6.997-3.588-10.081-6.101
			c-3.768-3.07-6.857-6.697-9.301-10.873c-2.528-4.319-4.241-8.948-5.031-13.905c-0.38-2.386-0.606-4.779-0.57-7.2
			c0.076-5.169,1.075-10.147,3.035-14.926c1.175-2.864,2.625-5.585,4.43-8.108C293.511,211.241,293.661,211.122,293.791,210.988z"/>
	</g>
	<g>
		<g>
			<defs>
				<circle id="XMLID_10_" cx="325.549" cy="235.68" r="16.64"/>
			</defs>
			<clipPath id="XMLID_3_">
				<use xlink:href="#XMLID_10_"  overflow="visible"/>
			</clipPath>
		</g>
		<g>
			<defs>
				<circle id="XMLID_9_" cx="325.549" cy="235.68" r="16.64"/>
			</defs>
			<use xlink:href="#XMLID_9_"  overflow="visible" fill="#5E8EC6"/>
			<clipPath id="XMLID_4_">
				<use xlink:href="#XMLID_9_"  overflow="visible"/>
			</clipPath>
			<circle clip-path="url(#XMLID_4_)" fill="#6797CE" cx="338.483" cy="222.131" r="24.642"/>
			<use xlink:href="#XMLID_9_"  overflow="visible" fill="none" stroke="#FFFFFF" stroke-width="1.5313" stroke-miterlimit="10"/>
		</g>
		<g>
			<defs>
				<circle id="XMLID_8_" cx="325.549" cy="235.68" r="16.64"/>
			</defs>
			<clipPath id="XMLID_5_">
				<use xlink:href="#XMLID_8_"  overflow="visible"/>
			</clipPath>
		</g>
	</g>
</g>
</svg>
