<?xml version="1.0" encoding="utf-8"?>
<!-- Generator: Adobe Illustrator 17.0.0, SVG Export Plug-In . SVG Version: 6.00 Build 0)  -->
<!DOCTYPE svg PUBLIC "-//W3C//DTD SVG 1.1//EN" "http://www.w3.org/Graphics/SVG/1.1/DTD/svg11.dtd">
<svg version="1.1" id="Calque_1" xmlns="http://www.w3.org/2000/svg" xmlns:xlink="http://www.w3.org/1999/xlink" x="0px" y="0px"
	 width="390px" height="300px" viewBox="0 0 390 300" enable-background="new 0 0 390 300" xml:space="preserve">
<path fill="#C2C2C2" d="M345.222,13.74H13.16C8.101,13.74,4,18.251,4,23.816v28.983V255.57v1.208c0,4.898,4.101,8.869,9.16,8.869
	h332.062c5.059,0,9.16-3.971,9.16-8.869v-1.208V52.799V23.816C354.382,18.251,350.281,13.74,345.222,13.74z"/>
<g>
	<path fill="#F3F4F6" d="M359.941,247.669c0,5.653-4.166,10.236-9.306,10.236H13.302c-5.139,0-9.306-4.583-9.306-10.236V12.236
		C3.997,6.583,8.163,2,13.302,2h337.333c5.139,0,9.306,4.583,9.306,10.236V247.669z"/>
	<g>
		<defs>
			<path id="XMLID_15_" d="M359.941,248.896c0,4.976-4.166,9.009-9.306,9.009H13.302c-5.139,0-9.306-4.034-9.306-9.009V41.68
				c0-4.976,4.166-9.009,9.306-9.009h337.333c5.139,0,9.306,4.034,9.306,9.009V248.896z"/>
		</defs>
		<use xlink:href="#XMLID_15_"  overflow="visible" fill="#FFFFFF"/>
		<clipPath id="XMLID_18_">
			<use xlink:href="#XMLID_15_"  overflow="visible"/>
		</clipPath>
		<rect x="-16.77" y="24.343" clip-path="url(#XMLID_18_)" fill="#3C3E45" width="109.902" height="258.162"/>
	</g>
	<path fill="#FFE97B" d="M341.435,112.385c0,1.851-0.602,3.351-1.345,3.351H237.848c-0.743,0-1.345-1.5-1.345-3.351V50.398
		c0-1.851,0.602-3.351,1.345-3.351H340.09c0.743,0,1.345,1.5,1.345,3.351V112.385z"/>
	<path fill="#F3F4F6" d="M341.435,191.23c0,1.851-0.602,3.351-1.345,3.351H237.848c-0.743,0-1.345-1.5-1.345-3.351v-61.987
		c0-1.851,0.602-3.351,1.345-3.351H340.09c0.743,0,1.345,1.5,1.345,3.351V191.23z"/>
	<path fill="#F3F4F6" d="M228.021,242.453c0,2.579-0.699,4.67-1.561,4.67H107.816c-0.862,0-1.561-2.091-1.561-4.67v-86.39
		c0-2.579,0.699-4.67,1.561-4.67H226.46c0.862,0,1.561,2.091,1.561,4.67V242.453z"/>
	<path fill="#F3F4F6" d="M226.676,79.18c0,1.221-0.984,2.211-2.197,2.211H172.3c-1.213,0-2.197-0.99-2.197-2.211V48.779
		c0-1.221,0.984-2.211,2.197-2.211h52.179c1.213,0,2.197,0.99,2.197,2.211V79.18z"/>
	<path fill="#F3F4F6" d="M161.716,79.18c0,1.221-0.984,2.211-2.197,2.211H107.34c-1.213,0-2.197-0.99-2.197-2.211V48.779
		c0-1.221,0.984-2.211,2.197-2.211h52.179c1.213,0,2.197,0.99,2.197,2.211V79.18z"/>
	<g>
		<circle fill="#E5332A" cx="19.901" cy="17.724" r="4.702"/>
		<circle fill="#F9DF6E" cx="37.542" cy="17.724" r="4.702"/>
		<circle fill="#2DAB66" cx="55.184" cy="17.724" r="4.702"/>
	</g>
	<path fill="#FFFFFF" d="M309.102,21.366c0,1.644-1.854,2.977-4.14,2.977H97.272c-2.286,0-4.14-1.333-4.14-2.977v-6.326
		c0-1.644,1.854-2.977,4.14-2.977h207.69c2.286,0,4.14,1.333,4.14,2.977V21.366z"/>
	
		<rect x="107.562" y="129.063" transform="matrix(0.9698 -0.2438 0.2438 0.9698 -28.0887 33.3531)" fill="#42ADC6" width="26.287" height="2.19"/>
	
		<rect x="126.331" y="113.993" transform="matrix(0.6573 -0.7536 0.7536 0.6573 -37.5128 147.678)" fill="#42ADC6" width="34.597" height="2.19"/>
	
		<rect x="154.542" y="103.91" transform="matrix(0.9716 0.2368 -0.2368 0.9716 29.5738 -36.2185)" fill="#42ADC6" width="22.042" height="2.19"/>
	
		<rect x="175.6" y="103.522" transform="matrix(-0.9716 0.2368 -0.2368 -0.9716 392.7068 162.0661)" fill="#42ADC6" width="22.042" height="2.19"/>
	
		<rect x="197.951" y="99.848" transform="matrix(-0.9994 0.0348 -0.0348 -0.9994 421.3305 194.5502)" fill="#42ADC6" width="22.042" height="2.19"/>
	<circle fill="#42ADC6" cx="133.186" cy="125.892" r="4.125"/>
	<circle fill="#42ADC6" cx="154.596" cy="102.421" r="4.125"/>
	<circle fill="#42ADC6" cx="175.927" cy="106.78" r="4.125"/>
	<circle fill="#42ADC6" cx="197.503" cy="101.172" r="4.125"/>
	
		<rect x="128.561" y="118.858" transform="matrix(0.8657 0.5006 -0.5006 0.8657 79.6493 -56.9081)" fill="#FCAF63" width="34.597" height="2.19"/>
	<g>
		
			<rect x="106.15" y="112.008" transform="matrix(0.9966 -0.0828 0.0828 0.9966 -8.9582 10.2696)" fill="#FCAF63" width="26.287" height="2.19"/>
		
			<rect x="158.853" y="121.309" transform="matrix(0.8428 -0.5382 0.5382 0.8428 -39.176 110.6574)" fill="#FCAF63" width="22.042" height="2.19"/>
		
			<rect x="178.906" y="114.87" transform="matrix(-0.9959 0.09 -0.09 -0.9959 389.5197 214.365)" fill="#FCAF63" width="22.042" height="2.19"/>
		
			<rect x="201.244" y="111.12" transform="matrix(-0.957 0.2901 -0.2901 -0.957 447.9572 158.0172)" fill="#FCAF63" width="22.042" height="2.19"/>
		<circle fill="#FCAF63" cx="132.483" cy="113.106" r="4.125"/>
		<circle fill="#FCAF63" cx="160.332" cy="128.395" r="4.125"/>
		<circle fill="#FCAF63" cx="179.108" cy="117.374" r="4.125"/>
		<circle fill="#FCAF63" cx="201.338" cy="115.706" r="4.125"/>
	</g>
	<circle fill="#E4E9EA" cx="49.683" cy="80.273" r="25.079"/>
	<g>
		<defs>
			<circle id="XMLID_14_" cx="49.683" cy="80.273" r="21.565"/>
		</defs>
		<use xlink:href="#XMLID_14_"  overflow="visible" fill="#FFFFFF"/>
		<clipPath id="XMLID_26_">
			<use xlink:href="#XMLID_14_"  overflow="visible"/>
		</clipPath>
		<circle clip-path="url(#XMLID_26_)" fill="#E4E9EA" cx="49.767" cy="100.226" r="15.452"/>
		<circle clip-path="url(#XMLID_26_)" fill="#E4E9EA" cx="49.683" cy="76.284" r="9.509"/>
	</g>
	<g>
		<g>
			<g>
				<g>
					<path fill="#46D3AE" d="M49.68,153.31l-23.915,7.77c-4.292-13.208,2.937-27.394,16.145-31.686
						c2.642-0.858,4.993-1.231,7.77-1.231V153.31z"/>
				</g>
			</g>
			<g>
				<g>
					<path fill="#FFE97B" d="M49.68,153.31l23.915,7.77c-4.292,13.208-18.478,20.436-31.686,16.145
						c-7.925-2.575-13.57-8.22-16.145-16.145L49.68,153.31z"/>
				</g>
			</g>
			<g>
				<g>
					<g>
						<path fill="#FCAF63" d="M49.68,153.31l14.78-20.343c8.988,6.53,12.568,17.548,9.135,28.114L49.68,153.31z"/>
					</g>
				</g>
			</g>
			<g>
				<g>
					<g>
						<path fill="#42ADC6" d="M49.68,153.31v-25.146c5.555,0,10.286,1.537,14.78,4.802L49.68,153.31z"/>
					</g>
				</g>
			</g>
		</g>
		<circle fill="#3C3E45" cx="49.68" cy="153.31" r="12.348"/>
	</g>
	<g>
		<text transform="matrix(1 0 0 1 128.4355 71.9667)" fill="#46D3AE" font-family="'BentonSans-Medium'" font-size="23.0027">6</text>
	</g>
	<g>
		<text transform="matrix(1 0 0 1 186.6697 71.9667)" fill="#42ADC6" font-family="'BentonSans-Medium'" font-size="23.0027">21</text>
	</g>
	<g>
		<circle fill="#FF7461" cx="128.738" cy="171.997" r="9.367"/>
		<circle fill="#FCAF63" cx="181.666" cy="171.997" r="9.367"/>
		<g>
			<g>
				<defs>
					<circle id="XMLID_47_" cx="207.784" cy="171.997" r="9.367"/>
				</defs>
				<clipPath id="XMLID_27_">
					<use xlink:href="#XMLID_47_"  overflow="visible"/>
				</clipPath>
			</g>
			<g>
				<defs>
					<circle id="XMLID_44_" cx="207.784" cy="171.997" r="9.367"/>
				</defs>
				<use xlink:href="#XMLID_44_"  overflow="visible" fill="#FF8395"/>
				<clipPath id="XMLID_33_">
					<use xlink:href="#XMLID_44_"  overflow="visible"/>
				</clipPath>
				<polyline opacity="0.2" clip-path="url(#XMLID_33_)" fill="#FF8395" points="213.566,170.053 218.901,175.78 209.198,182.336 
					202.689,174.555 213.558,170.186 				"/>
				<path id="XMLID_46_" opacity="0.2" clip-path="url(#XMLID_33_)" fill="#FF8395" d="M207.784,162.63
					c5.173,0,9.367,4.194,9.367,9.367"/>
			</g>
			<g>
				<defs>
					<circle id="XMLID_41_" cx="207.784" cy="171.997" r="9.367"/>
				</defs>
				<clipPath id="XMLID_34_">
					<use xlink:href="#XMLID_41_"  overflow="visible"/>
				</clipPath>
			</g>
		</g>
		<g>
			<defs>
				<circle id="XMLID_5_" cx="155.481" cy="171.997" r="9.367"/>
			</defs>
			<use xlink:href="#XMLID_5_"  overflow="visible" fill="#46D3AE"/>
			<clipPath id="XMLID_35_">
				<use xlink:href="#XMLID_5_"  overflow="visible"/>
			</clipPath>
		</g>
	</g>
	<g opacity="0.6">
		<circle fill="#DADADA" cx="128.738" cy="199.44" r="9.367"/>
		<circle fill="#DADADA" cx="181.666" cy="199.44" r="9.367"/>
		<g>
			<g>
				<defs>
					<circle id="XMLID_50_" cx="207.784" cy="199.44" r="9.367"/>
				</defs>
				<clipPath id="XMLID_36_">
					<use xlink:href="#XMLID_50_"  overflow="visible"/>
				</clipPath>
			</g>
			<g>
				<defs>
					<circle id="XMLID_48_" cx="207.784" cy="199.44" r="9.367"/>
				</defs>
				<use xlink:href="#XMLID_48_"  overflow="visible" fill="#DADADA"/>
				<clipPath id="XMLID_37_">
					<use xlink:href="#XMLID_48_"  overflow="visible"/>
				</clipPath>
				<polyline opacity="0.2" clip-path="url(#XMLID_37_)" fill="#DADADA" points="213.566,197.495 218.901,203.223 209.198,209.779 
					202.689,201.997 213.558,197.629 				"/>
				<path id="XMLID_49_" opacity="0.2" clip-path="url(#XMLID_37_)" fill="#DADADA" d="M207.784,190.073
					c5.173,0,9.367,4.194,9.367,9.367"/>
			</g>
			<g>
				<defs>
					<circle id="XMLID_45_" cx="207.784" cy="199.44" r="9.367"/>
				</defs>
				<clipPath id="XMLID_38_">
					<use xlink:href="#XMLID_45_"  overflow="visible"/>
				</clipPath>
			</g>
		</g>
		<g>
			<defs>
				<circle id="XMLID_4_" cx="155.481" cy="199.44" r="9.367"/>
			</defs>
			<use xlink:href="#XMLID_4_"  overflow="visible" fill="#DADADA"/>
			<clipPath id="XMLID_39_">
				<use xlink:href="#XMLID_4_"  overflow="visible"/>
			</clipPath>
		</g>
	</g>
	<g opacity="0.6">
		<circle fill="#DADADA" cx="128.738" cy="226.561" r="9.367"/>
		<circle fill="#DADADA" cx="181.666" cy="226.561" r="9.367"/>
		<g>
			<g>
				<defs>
					<circle id="XMLID_53_" cx="207.784" cy="226.561" r="9.367"/>
				</defs>
				<clipPath id="XMLID_40_">
					<use xlink:href="#XMLID_53_"  overflow="visible"/>
				</clipPath>
			</g>
			<g>
				<defs>
					<circle id="XMLID_51_" cx="207.784" cy="226.561" r="9.367"/>
				</defs>
				<use xlink:href="#XMLID_51_"  overflow="visible" fill="#DADADA"/>
				<clipPath id="XMLID_43_">
					<use xlink:href="#XMLID_51_"  overflow="visible"/>
				</clipPath>
				<polyline opacity="0.2" clip-path="url(#XMLID_43_)" fill="#DADADA" points="213.566,224.616 218.901,230.344 209.198,236.9 
					202.689,229.118 213.558,224.749 				"/>
				<path id="XMLID_52_" opacity="0.2" clip-path="url(#XMLID_43_)" fill="#DADADA" d="M207.784,217.194
					c5.173,0,9.367,4.194,9.367,9.367"/>
			</g>
			<g>
				<defs>
					<circle id="XMLID_42_" cx="207.784" cy="226.561" r="9.367"/>
				</defs>
				<clipPath id="XMLID_54_">
					<use xlink:href="#XMLID_42_"  overflow="visible"/>
				</clipPath>
			</g>
		</g>
		<g>
			<defs>
				<circle id="XMLID_13_" cx="155.481" cy="226.561" r="9.367"/>
			</defs>
			<use xlink:href="#XMLID_13_"  overflow="visible" fill="#DADADA"/>
			<clipPath id="XMLID_55_">
				<use xlink:href="#XMLID_13_"  overflow="visible"/>
			</clipPath>
		</g>
	</g>
</g>
</svg>
