<?xml version="1.0" encoding="utf-8"?>
<!-- Generator: Adobe Illustrator 17.0.0, SVG Export Plug-In . SVG Version: 6.00 Build 0)  -->
<!DOCTYPE svg PUBLIC "-//W3C//DTD SVG 1.1//EN" "http://www.w3.org/Graphics/SVG/1.1/DTD/svg11.dtd">
<svg version="1.1" id="Calque_1" xmlns="http://www.w3.org/2000/svg" xmlns:xlink="http://www.w3.org/1999/xlink" x="0px" y="0px"
	 width="50px" height="50px" viewBox="0 0 50 50" enable-background="new 0 0 50 50" xml:space="preserve">
<path fill="#C2C2C2" d="M-1057.278-115.76h-332.062c-5.059,0-9.16,4.511-9.16,10.076v28.983V126.07v1.208
	c0,4.898,4.101,8.869,9.16,8.869h332.062c5.059,0,9.16-3.971,9.16-8.869v-1.208V-76.701v-28.983
	C-1048.118-111.249-1052.219-115.76-1057.278-115.76z"/>
<path fill="#F3F4F6" d="M-1048.118,118.664c0,5.565-4.101,10.076-9.16,10.076h-332.062c-5.059,0-9.16-4.511-9.16-10.076V-113.09
	c0-5.565,4.101-10.076,9.16-10.076h332.062c5.059,0,9.16,4.511,9.16,10.076V118.664z"/>
<path fill="#FFFFFF" d="M-1048.118,119.871c0,4.898-4.101,8.869-9.16,8.869h-332.062c-5.059,0-9.16-3.971-9.16-8.869V-84.107
	c0-4.898,4.101-8.869,9.16-8.869h332.062c5.059,0,9.16,3.971,9.16,8.869V119.871z"/>
<g>
	<path fill="#F3F4F6" d="M-1076.128-54.188c0,2.547-1.903,4.613-4.251,4.613h-285.861c-2.348,0-4.251-2.065-4.251-4.613V-65.72
		c0-2.547,1.903-4.613,4.251-4.613h285.861c2.348,0,4.251,2.065,4.251,4.613V-54.188z"/>
	<path fill="#F3F4F6" d="M-1076.128,33.449c0,2.084-1.69,3.774-3.774,3.774h-286.815c-2.084,0-3.774-1.69-3.774-3.774v-69.817
		c0-2.084,1.69-3.774,3.774-3.774h286.815c2.084,0,3.774,1.69,3.774,3.774V33.449z"/>
	<path fill="#F3F4F6" d="M-1279.22,102.323c0,2.084-1.587,3.774-3.544,3.774h-84.182c-1.958,0-3.544-1.69-3.544-3.774V50.432
		c0-2.084,1.587-3.774,3.544-3.774h84.182c1.958,0,3.544,1.69,3.544,3.774V102.323z"/>
	<path fill="#F3F4F6" d="M-1177.315,102.323c0,2.084-1.587,3.774-3.545,3.774h-84.182c-1.958,0-3.544-1.69-3.544-3.774V50.432
		c0-2.084,1.587-3.774,3.544-3.774h84.182c1.958,0,3.545,1.69,3.545,3.774V102.323z"/>
	<path fill="#F3F4F6" d="M-1076.128,102.323c0,2.084-1.587,3.774-3.544,3.774h-84.182c-1.958,0-3.545-1.69-3.545-3.774V50.432
		c0-2.084,1.587-3.774,3.545-3.774h84.182c1.958,0,3.544,1.69,3.544,3.774V102.323z"/>
</g>
<g>
	<circle fill="#E5332A" cx="-1364.918" cy="-107.688" r="4.629"/>
	<circle fill="#F9DF6E" cx="-1347.553" cy="-107.688" r="4.629"/>
	<circle fill="#2DAB66" cx="-1330.187" cy="-107.688" r="4.629"/>
</g>
<path fill="#FFFFFF" d="M-1098.162-104.103c0,1.618-1.825,2.93-4.075,2.93h-204.445c-2.251,0-4.075-1.312-4.075-2.93v-6.227
	c0-1.618,1.824-2.93,4.075-2.93h204.445c2.251,0,4.075,1.312,4.075,2.93V-104.103z"/>
<g>
	<g>
		<path fill="#C6BD28" d="M-1084.431,150.122c0.145-0.254,0.29-0.507,0.434-0.761c0.048-0.086,0.104-0.097,0.171-0.02
			c1.888,0.391,3.757,0.867,5.689,1.047c2.592,0.243,5.167,0.362,7.779,0.17c3.57-0.263,7.021-0.966,10.399-2.109
			c0.203-0.069,0.439-0.035,0.66-0.049c-1.833,1.067-3.883,1.515-5.91,1.989c-6.267,1.466-12.541,1.43-18.801-0.08
			C-1084.156,150.274-1084.291,150.186-1084.431,150.122z"/>
		<path fill="#CEC538" d="M-1059.12,148.363c0.282-0.423,0.696-0.558,1.18-0.539
			C-1058.231,148.226-1058.654,148.341-1059.12,148.363z"/>
		<path fill="#D0C836" d="M-1057.586,147.606c0.287-0.308,0.648-0.393,1.052-0.353
			C-1056.838,147.508-1057.156,147.723-1057.586,147.606z"/>
		<g>
			<path fill="#F1E62F" d="M-1078.453,142.078c0.323,0.39,0.657,0.034,0.967-0.012c6.39-0.956,12.51-2.778,18.21-5.862
				c3.792-2.052,7.251-4.579,10.203-7.737c3.8-4.065,6.589-8.76,8.556-13.965c1.228-3.249,2.061-6.599,2.596-10.013
				c0.506-3.229,0.695-6.495,0.64-9.769c1.948,3.048,2.679,6.506,3.177,9.994c1.296,9.079-0.233,17.686-4.674,25.732
				c-3.476,6.298-8.336,11.294-14.455,15.06c-1.058,0.651-2.199,1.168-3.302,1.746c-0.362,0.085-0.708,0.215-1.052,0.354
				c-0.118,0.072-0.236,0.145-0.354,0.217c-0.386,0.196-0.824,0.277-1.18,0.539c-0.058,0.02-0.117,0.032-0.178,0.038
				c-2.512,0.898-5.062,1.669-7.703,2.078c-5.372,0.833-10.705,0.632-15.987-0.687c-0.216-0.054-0.429-0.12-0.625-0.227
				c-0.582-0.485-0.087-0.861,0.166-1.206c1.415-1.925,2.807-3.867,4.257-5.766
				C-1078.956,142.405-1078.869,142.005-1078.453,142.078z"/>
			<path fill="#FEF232" d="M-1037.304,94.442c0.008,0.093,0.016,0.185,0.025,0.278c0.368,1.152,0.278,2.343,0.219,3.512
				c-0.483,9.58-2.93,18.536-8.568,26.447c-3.64,5.107-8.354,8.981-13.86,11.921c-5.572,2.976-11.549,4.707-17.755,5.715
				c-0.413,0.067-0.874,0.309-1.262-0.1c-0.136-0.478,0.196-0.784,0.436-1.104c5.084-6.748,10.064-13.575,15.344-20.173
				c0.929-1.161,1.496-2.237,0.761-3.7c-0.223-0.443-0.304-0.97-0.453-1.459c-1.508-5.853-3.616-11.513-5.513-17.24
				c-0.125-0.378-0.519-0.791-0.047-1.212c2.19-0.462,4.429-0.468,6.643-0.696c4.087-0.422,8.175-0.825,12.262-1.253
				c3.612-0.378,7.22-0.787,10.829-1.191c0.223-0.025,0.445-0.024,0.663,0.042C-1037.464,94.271-1037.373,94.342-1037.304,94.442z"
				/>
			<path fill="#F13535" d="M-1037.304,94.442c-0.065-0.021-0.13-0.042-0.194-0.064c-1.347-0.656-2.281-1.826-3.405-2.756
				c-4.041-3.345-8.297-6.368-13.015-8.682c-4.758-2.334-9.759-3.87-15.063-4.385c-6.748-0.655-13.207,0.451-19.433,3.046
				c-4.923,2.052-9.385,4.86-13.448,8.312c-0.361,0.307-0.713,0.642-1.194,0.771c-0.439-0.006-0.555-0.372-0.728-0.666
				c-0.805-1.371-1.561-2.771-2.326-4.165c-0.048-0.137-0.054-0.275-0.015-0.415c0.952-1.355,2.141-2.515,3.175-3.803
				c0.583-0.386,0.869-1.087,1.501-1.423c0.388-0.078,0.54-0.434,0.791-0.673c3.419-3.041,7.33-5.267,11.576-6.913
				c19.94-7.73,42.674,1.479,51.626,20.905C-1037.331,93.801-1036.938,94.073-1037.304,94.442z"/>
			<path fill="#469D4B" d="M-1106.018,85.414c0.003,0.098,0.007,0.196,0.01,0.294c-0.002,0.153-0.033,0.299-0.114,0.431
				c-3.743,5.259-6.191,11.061-7.183,17.444c-1.301,8.369-0.086,16.37,3.574,24.019c2.077,4.341,4.857,8.173,8.306,11.488
				c4.72,4.536,10.25,7.757,16.526,9.669c0.351,0.107,0.777,0.11,0.974,0.52c0.037,0.405-0.083,0.715-0.506,0.843
				c-2.028-0.315-3.94-1.026-5.792-1.859c-13.764-6.193-22.137-16.714-24.498-31.618c-1.811-11.432,1.103-21.854,8.178-31.064
				c0.093-0.121,0.223-0.214,0.335-0.32C-1106.121,85.282-1106.057,85.333-1106.018,85.414z"/>
		</g>
		<path fill="#CB3737" d="M-1106.018,85.414c-0.063-0.051-0.126-0.102-0.189-0.153c0.919-1.359,2.004-2.569,3.259-3.626
			c-0.029,0.154-0.002,0.369-0.095,0.454C-1104.144,83.101-1104.883,84.435-1106.018,85.414z"/>
		<path fill="#D52F2F" d="M-1100.657,79.539c-0.152,0.355-0.239,0.788-0.791,0.673
			C-1101.234,79.928-1100.994,79.677-1100.657,79.539z"/>
		<path fill="#FE3838" d="M-1103.147,90.582c2.868-2.304,5.754-4.577,8.968-6.405c4.282-2.435,8.777-4.295,13.619-5.271
			c3.785-0.763,7.587-0.943,11.443-0.604c5.817,0.512,11.23,2.298,16.373,4.959c3.957,2.047,7.61,4.568,11.045,7.409
			c1.441,1.192,2.882,2.379,4.201,3.708c-10.167,1.205-20.35,2.248-30.549,3.142c-0.627,0.39-1.333,0.417-2.031,0.386
			c-1.565-0.07-2.825,0.449-3.894,1.634c-1.717,1.904-3.106,4.035-4.48,6.178c-1.134,1.769-2.232,3.562-3.302,5.371
			c-0.412,0.697-0.869,1.13-1.813,1.098c-1.299-0.045-2.274,2.032-1.697,3.43c0.28,0.679,0.732,1.268,1.047,1.93
			c0.389,0.817,0.293,1.007-0.629,1.026c-0.921,0.019-1.846,0.079-2.766-0.05c-0.415-0.114-0.582-0.47-0.769-0.801
			c-1.705-3.018-3.342-6.074-5.041-9.096c-2.62-4.659-5.243-9.317-7.826-13.998c-0.6-1.087-1.223-2.16-1.794-3.262
			C-1103.167,91.123-1103.385,90.88-1103.147,90.582z"/>
		<path fill="#5CD064" d="M-1103.147,90.582c1.912,3.477,3.819,6.958,5.739,10.431c2.535,4.585,5.045,9.185,7.645,13.733
			c0.691,1.209,1.228,2.518,2.123,3.609c1.068,0.65,2.024,1.456,2.763,2.444c0.499,0.667,1.081,1.047,1.846,1.232
			c0.868,0.21,1.754,0.335,2.639,0.417c3.777,0.35,7.558,0.088,11.337,0.006c1.12-0.024,1.965-0.483,2.616-1.459
			c1.024-1.534,2.212-2.955,3.342-4.415c0.238-0.308,0.404-0.745,0.915-0.721c0.308,1,0.612,2,0.926,2.998
			c0.142,0.451-0.165,0.709-0.397,1.006c-5.478,7.02-10.826,14.139-16.152,21.275c-0.227,0.305-0.433,0.625-0.648,0.939
			c-0.187,0.197-0.374,0.394-0.56,0.591c-3.747-1.496-7.28-3.406-10.588-5.701c-5.161-3.58-9.59-7.902-12.947-13.256
			c-3.047-4.859-4.868-10.149-5.661-15.823c-0.422-3.017-0.46-6.046-0.329-9.067c0.171-3.957,0.84-7.857,1.84-11.695
			c0.105-0.403,0.296-0.772,0.49-1.139c0.067-0.093,0.134-0.186,0.201-0.28c0.914,1.287,1.548,2.736,2.357,4.085
			C-1103.49,90.061-1103.315,90.32-1103.147,90.582z"/>
		<path fill="#ECECEC" d="M-1062.182,115.86c-1.478,1.918-2.977,3.82-4.422,5.762c-0.469,0.631-0.958,0.982-1.788,1.017
			c-4.744,0.201-9.488,0.531-14.212-0.263c-1.078-0.181-1.97-0.512-2.613-1.616c-0.554-0.953-1.752-1.453-2.424-2.405
			c1.144,0,2.288,0,3.587,0c-0.489-0.887-0.866-1.687-1.349-2.419c-0.734-1.113-0.213-2.085,0.276-3.043
			c0.419-0.82,1.1-1.202,2.065-0.908c0.46,0.14,0.595-0.293,0.768-0.569c1.219-1.942,2.409-3.903,3.634-5.841
			c1.362-2.155,2.77-4.275,4.471-6.191c1.016-1.145,2.2-1.774,3.758-1.724c0.792,0.025,1.588-0.09,2.382-0.142
			c2.038,5.923,4.183,11.811,5.804,17.869C-1062.203,115.541-1062.202,115.703-1062.182,115.86z"/>
		<path fill="#55C05C" d="M-1106.209,85.988c-0.46,2.295-1.08,4.557-1.432,6.876c-0.644,4.249-0.856,8.502-0.517,12.8
			c0.323,4.086,1.224,8.013,2.719,11.812c1.514,3.848,3.648,7.335,6.295,10.5c5.048,6.037,11.326,10.437,18.425,13.731
			c0.592,0.275,1.315,0.326,1.706,0.961c-1.435,1.96-2.871,3.92-4.302,5.883c-0.184,0.253-0.341,0.526-0.511,0.79
			c-0.057,0.002-0.114,0.009-0.171,0.02c-1.666-0.693-3.42-1.138-5.081-1.857c-3.643-1.577-6.997-3.588-10.081-6.101
			c-3.768-3.07-6.857-6.697-9.301-10.873c-2.528-4.319-4.241-8.948-5.031-13.905c-0.38-2.386-0.606-4.779-0.571-7.2
			c0.077-5.169,1.075-10.147,3.035-14.926c1.175-2.864,2.625-5.585,4.43-8.108C-1106.489,86.241-1106.339,86.122-1106.209,85.988z"
			/>
	</g>
	<g>
		<g>
			<defs>
				<circle id="XMLID_10_" cx="-1074.451" cy="110.68" r="16.64"/>
			</defs>
			<clipPath id="XMLID_18_">
				<use xlink:href="#XMLID_10_"  overflow="visible"/>
			</clipPath>
		</g>
		<g>
			<defs>
				<circle id="XMLID_9_" cx="-1074.451" cy="110.68" r="16.64"/>
			</defs>
			<use xlink:href="#XMLID_9_"  overflow="visible" fill="#5E8EC6"/>
			<clipPath id="XMLID_26_">
				<use xlink:href="#XMLID_9_"  overflow="visible"/>
			</clipPath>
			<circle clip-path="url(#XMLID_26_)" fill="#6797CE" cx="-1061.517" cy="97.131" r="24.642"/>
			<use xlink:href="#XMLID_9_"  overflow="visible" fill="none" stroke="#FFFFFF" stroke-width="1.5313" stroke-miterlimit="10"/>
		</g>
		<g>
			<defs>
				<circle id="XMLID_8_" cx="-1074.451" cy="110.68" r="16.64"/>
			</defs>
			<clipPath id="XMLID_27_">
				<use xlink:href="#XMLID_8_"  overflow="visible"/>
			</clipPath>
		</g>
	</g>
</g>
<polygon fill="#F46058" points="-956.695,46.628 -956.695,80.228 -942.302,66.13 -927.742,80.392 -927.117,80.392 -927.117,46.628 
	"/>
<polygon fill="#32BA90" points="-859.977,46.158 -859.977,79.758 -845.584,65.659 -831.023,79.922 -830.398,79.922 -830.398,46.158 
	"/>
<polygon fill="#FCA755" points="-761.412,46.628 -761.412,80.228 -747.019,66.13 -732.458,80.392 -731.833,80.392 -731.833,46.628 
	"/>
<polygon fill="#F47889" points="-663.97,46.628 -663.97,80.228 -649.576,66.13 -635.016,80.392 -634.391,80.392 -634.391,46.628 "/>
<circle fill="#FF7461" cx="-941.365" cy="11.744" r="38.126"/>
<circle fill="#FCAF63" cx="-746.623" cy="11.744" r="38.126"/>
<g>
	<defs>
		<circle id="XMLID_30_" cx="-649.252" cy="11.744" r="38.126"/>
	</defs>
	<use xlink:href="#XMLID_30_"  overflow="visible" fill="#FC6BA2"/>
	<clipPath id="XMLID_33_">
		<use xlink:href="#XMLID_30_"  overflow="visible"/>
	</clipPath>
	<polyline opacity="0.4" clip-path="url(#XMLID_33_)" fill="#C6588A" points="-623.398,7.662 -606.236,30.1 -631.506,55.942 
		-671.887,20.402 -625.749,4.37 	"/>
	<path id="XMLID_31_" clip-path="url(#XMLID_33_)" fill="#FC6BA2" d="M-649.252-26.383c21.057,0,38.126,17.07,38.126,38.126"/>
</g>
<g>
	<g>
		<defs>
			<circle id="XMLID_22_" cx="-649.252" cy="11.744" r="38.126"/>
		</defs>
		<clipPath id="XMLID_34_">
			<use xlink:href="#XMLID_22_"  overflow="visible"/>
		</clipPath>
	</g>
	<g>
		<defs>
			<circle id="XMLID_19_" cx="-649.252" cy="11.744" r="38.126"/>
		</defs>
		<use xlink:href="#XMLID_19_"  overflow="visible" fill="#FF8395"/>
		<clipPath id="XMLID_35_">
			<use xlink:href="#XMLID_19_"  overflow="visible"/>
		</clipPath>
		<polyline opacity="0.2" clip-path="url(#XMLID_35_)" fill="#FF8395" points="-625.718,3.828 -604,27.142 -643.496,53.826 
			-669.989,22.153 -625.749,4.37 		"/>
		<path id="XMLID_21_" opacity="0.2" clip-path="url(#XMLID_35_)" fill="#FF8395" d="M-649.252-26.383
			c21.057,0,38.126,17.07,38.126,38.126"/>
	</g>
	<g>
		<defs>
			<circle id="XMLID_17_" cx="-649.252" cy="11.744" r="38.126"/>
		</defs>
		<clipPath id="XMLID_36_">
			<use xlink:href="#XMLID_17_"  overflow="visible"/>
		</clipPath>
	</g>
</g>
<g>
	<g>
		<defs>
			<circle id="XMLID_25_" cx="-663.212" cy="11.744" r="12.423"/>
		</defs>
		<use xlink:href="#XMLID_25_"  overflow="visible" fill="#FFFFFF"/>
		<clipPath id="XMLID_37_">
			<use xlink:href="#XMLID_25_"  overflow="visible"/>
		</clipPath>
	</g>
	<path fill="#FFFFFF" d="M-649.18,1.283v14.177c0,0-1.432-0.43-2.578,1.432c-1.146,1.862-6.301,3.294-6.301,3.294V1.283
		c0,0,3.58,0.859,3.58,3.294c0,0,1.002,0.286,2.434-1.718C-652.044,2.858-651.295,1.283-649.18,1.283z"/>
	<path fill="#F6F6F6" d="M-649.323,1.283v14.177c0,0,1.432-0.43,2.578,1.432c1.146,1.862,6.301,3.294,6.301,3.294V1.283
		c0,0-3.58,0.859-3.58,3.294c0,0-1.002,0.286-2.434-1.718C-646.459,2.858-647.209,1.283-649.323,1.283z"/>
	<circle fill="#F6F6F6" cx="-635.292" cy="11.744" r="12.423"/>
	<g>
		<defs>
			<circle id="XMLID_24_" cx="-635.292" cy="11.744" r="10.409"/>
		</defs>
		<use xlink:href="#XMLID_24_"  overflow="visible" fill="#4B565A"/>
		<clipPath id="XMLID_38_">
			<use xlink:href="#XMLID_24_"  overflow="visible"/>
		</clipPath>
		
			<path opacity="0.1" clip-path="url(#XMLID_38_)" fill="#35BC8F" stroke="#283531" stroke-width="2.8212" stroke-miterlimit="10" d="
			M-624.66,11.643c-0.003,3.766-0.006,7.531-0.01,11.297c-0.002,2.435-2.209,1.31-3.585,1.309
			c-5.889-0.004-11.779-0.008-17.668-0.013c0.004-4.403,0.007-8.805,0.011-13.208C-638.624,13.947-632.037,13.809-624.66,11.643z"/>
	</g>
	<g>
		<defs>
			<ellipse id="XMLID_23_" cx="-663.212" cy="11.744" rx="10.908" ry="10.522"/>
		</defs>
		<use xlink:href="#XMLID_23_"  overflow="visible" fill="#4C565B"/>
		<clipPath id="XMLID_39_">
			<use xlink:href="#XMLID_23_"  overflow="visible"/>
		</clipPath>
		<path opacity="0.1" clip-path="url(#XMLID_39_)" fill="#35BC8F" d="M-651.762,11.077c-0.003,3.945-0.007,7.89-0.01,11.835
			c-0.002,2.551-2.399,1.372-3.894,1.371c-6.396-0.004-12.792-0.009-19.189-0.013c0.004-4.612,0.008-9.225,0.012-13.837
			C-666.927,13.491-659.774,13.347-651.762,11.077z"/>
	</g>
</g>
<g>
	<g>
		<path fill="#FFFFFF" d="M-741.936-3.12c0,0.342-0.39,0.619-0.87,0.619l0,0c-0.481,0-0.87-0.277-0.87-0.619v-9.24
			c0-0.342,0.39-0.619,0.87-0.619l0,0c0.481,0,0.87,0.277,0.87,0.619V-3.12z"/>
		<path fill="#FFFFFF" d="M-738.455-12.359v9.24c0,0.341-0.391,0.619-0.868,0.619c-0.482,0-0.873-0.278-0.873-0.619v-9.24
			c0-0.345,0.391-0.619,0.873-0.619C-738.846-12.978-738.455-12.704-738.455-12.359z"/>
		<path fill="#FFFFFF" d="M-734.974-12.359v9.24c0,0.341-0.391,0.619-0.868,0.619c-0.482,0-0.873-0.278-0.873-0.619v-9.24
			c0-0.345,0.391-0.619,0.873-0.619C-735.365-12.978-734.974-12.704-734.974-12.359z"/>
		<path fill="#FFFFFF" d="M-731.492-3.12c0,0.342-0.39,0.619-0.87,0.619l0,0c-0.481,0-0.87-0.277-0.87-0.619v-9.24
			c0-0.342,0.39-0.619,0.87-0.619l0,0c0.481,0,0.87,0.277,0.87,0.619V-3.12z"/>
	</g>
	<path fill="#FFFFFF" d="M-737.32,10.739c-0.15,0.005,0.766-1.328,0.605-1.328h-1.741c-0.139,0,0.262,1.334,0.134,1.323
		c-4.654-0.284-5.356-6.952-5.356-7.429v-6.663c0-0.493,0.482-0.889,1.071-0.889h0.669c0,0.482,0.391,0.873,0.873,0.873
		c0.461,0,0.841-0.359,0.868-0.814v-0.059h1.741c0,0.482,0.391,0.873,0.873,0.873c0.461,0,0.841-0.359,0.868-0.814v-0.059h1.746
		c-0.005,0.021-0.005,0.043-0.005,0.064c0,0.482,0.391,0.873,0.868,0.873c0.482,0,0.873-0.391,0.873-0.873
		c0-0.021,0-0.043-0.005-0.064h0.675c0.589,0,1.071,0.396,1.071,0.889v6.663C-731.492,3.777-732.146,10.434-737.32,10.739z"/>
	<path fill="#FFFFFF" d="M-736.246,34.316c0,0.592-0.48,1.071-1.071,1.071h-0.469c-0.592,0-1.071-0.48-1.071-1.071V3.252
		c0-0.592,0.48-1.071,1.071-1.071h0.469c0.592,0,1.071,0.48,1.071,1.071V34.316z"/>
	<path fill="#FFFFFF" d="M-753.664,34.316c0,0.592-0.48,1.071-1.071,1.071h-0.469c-0.592,0-1.071-0.48-1.071-1.071V3.252
		c0-0.592,0.48-1.071,1.071-1.071h0.469c0.592,0,1.071,0.48,1.071,1.071V34.316z"/>
	<path fill="#FFFFFF" d="M-736.709-4.246c0,0.021,0,0.037-0.005,0.059v-0.118C-736.709-4.284-736.709-4.268-736.709-4.246z"/>
	<path fill="#FFFFFF" d="M-740.19-4.246c0,0.021,0,0.037-0.005,0.059v-0.118C-740.19-4.284-740.19-4.268-740.19-4.246z"/>
	<path fill="#FFFFFF" d="M-748.185-1.016c0,6.196-3.037,11.22-6.784,11.22s-6.784-5.023-6.784-11.22
		c0-4.614,3.037-11.22,6.784-11.22S-748.185-4.305-748.185-1.016z"/>
</g>
<g>
	<polygon fill="#FFFFFF" points="-940.893,11.744 -960.008,24.432 -960.008,-0.945 	"/>
	<rect x="-936.881" y="-0.945" fill="#FFFFFF" width="4.72" height="25.377"/>
	<rect x="-927.441" y="-0.945" fill="#FFFFFF" width="4.72" height="25.377"/>
</g>
<g>
	<defs>
		<circle id="XMLID_32_" cx="-843.798" cy="11.744" r="38.126"/>
	</defs>
	<use xlink:href="#XMLID_32_"  overflow="visible" fill="#46D3AE"/>
	<clipPath id="XMLID_40_">
		<use xlink:href="#XMLID_32_"  overflow="visible"/>
	</clipPath>
	<polyline opacity="0.6" clip-path="url(#XMLID_40_)" fill="#3CBC97" points="-827.293,-11.726 -800.777,18.498 -831.063,64.406 
		-859.72,35.733 -827.989,-12.462 	"/>
</g>
<g>
	<g>
		<g>
			<defs>
				<path id="XMLID_20_" d="M-828.562-12.462h-30.472c-0.379,0-0.687,0.307-0.687,0.687v47.038c0,0.379,0.307,0.687,0.687,0.687h20
					c5.851,0,10.65-4.503,11.121-10.233c0.025-0.305,0.038-0.614,0.038-0.926v-36.566
					C-827.875-12.155-828.183-12.462-828.562-12.462z"/>
			</defs>
			<use xlink:href="#XMLID_20_"  overflow="visible" fill="#F6F6F6"/>
			<clipPath id="XMLID_43_">
				<use xlink:href="#XMLID_20_"  overflow="visible"/>
			</clipPath>
			<polyline clip-path="url(#XMLID_43_)" fill="#EDEDED" points="-839.891,36.55 -832.037,38.782 -825.472,31.718 -827.875,24.791 
							"/>
		</g>
	</g>
	<path fill="#706F6F" d="M-830.389-8.256V5.575c0,1.842-1.494,3.336-3.336,3.336h-22.796c-0.379,0-0.687-0.307-0.687-0.687V-8.256
		c0-0.379,0.307-0.687,0.687-0.687h25.445C-830.696-8.943-830.389-8.636-830.389-8.256z"/>
	<circle fill="#706F6F" cx="-833.724" cy="5.576" r="3.336"/>
	<path fill="#706F6F" d="M-852.164,22.302c0,0.19-0.154,0.343-0.343,0.343h-1.631c-0.19,0-0.343-0.154-0.343-0.343v-6.524
		c0-0.19,0.154-0.343,0.343-0.343h1.631c0.19,0,0.343,0.154,0.343,0.343V22.302z"/>
	<path fill="#706F6F" d="M-850.061,20.199c0.19,0,0.343-0.154,0.343-0.343v-1.631c0-0.19-0.154-0.343-0.343-0.343h-6.524
		c-0.19,0-0.343,0.154-0.343,0.343v1.631c0,0.19,0.154,0.343,0.343,0.343H-850.061z"/>
	<circle fill="#FF7461" cx="-832.608" cy="17.393" r="1.958"/>
	<circle fill="#FF7461" cx="-837.575" cy="20.456" r="1.958"/>
	<path fill="#706F6F" d="M-845.236,28.176c0.114,0.234,0.017,0.517-0.217,0.631l-3.394,1.656c-0.234,0.114-0.517,0.017-0.631-0.217
		l0,0c-0.114-0.234-0.017-0.517,0.217-0.631l3.394-1.656C-845.633,27.845-845.35,27.942-845.236,28.176L-845.236,28.176z"/>
	<path fill="#706F6F" d="M-849.421,28.176c0.114,0.234,0.017,0.517-0.217,0.631l-3.394,1.656c-0.234,0.114-0.517,0.017-0.631-0.217
		l0,0c-0.114-0.234-0.017-0.517,0.217-0.631l3.394-1.656C-849.818,27.845-849.536,27.942-849.421,28.176L-849.421,28.176z"/>
	<g>
		<path fill="#706F6F" d="M-829.975,27.37c0.087,0.084,0.076,0.235-0.023,0.337l0,0c-0.099,0.102-0.25,0.116-0.337,0.032
			l-3.764-3.669c-0.087-0.084-0.076-0.235,0.023-0.337l0,0c0.099-0.102,0.25-0.116,0.337-0.032L-829.975,27.37z"/>
		<path fill="#706F6F" d="M-831.122,28.57c0.087,0.084,0.076,0.235-0.023,0.337l0,0c-0.099,0.102-0.25,0.116-0.337,0.032
			l-3.764-3.669c-0.087-0.084-0.076-0.235,0.023-0.337l0,0c0.099-0.102,0.25-0.116,0.337-0.032L-831.122,28.57z"/>
		<path fill="#706F6F" d="M-832.268,29.77c0.087,0.084,0.076,0.235-0.023,0.337l0,0c-0.099,0.102-0.25,0.116-0.337,0.032
			l-3.764-3.669c-0.087-0.084-0.076-0.235,0.023-0.337l0,0c0.099-0.102,0.25-0.116,0.337-0.032L-832.268,29.77z"/>
		<path fill="#706F6F" d="M-833.415,30.969c0.087,0.084,0.076,0.235-0.023,0.337l0,0c-0.099,0.102-0.25,0.116-0.337,0.032
			l-3.764-3.669c-0.087-0.084-0.076-0.235,0.023-0.337l0,0c0.099-0.102,0.25-0.116,0.337-0.032L-833.415,30.969z"/>
		<path fill="#706F6F" d="M-834.562,32.169c0.087,0.084,0.076,0.235-0.023,0.337l0,0c-0.099,0.102-0.25,0.116-0.337,0.032
			l-3.764-3.669c-0.087-0.084-0.076-0.235,0.023-0.337l0,0c0.099-0.102,0.25-0.116,0.337-0.032L-834.562,32.169z"/>
		<path fill="#706F6F" d="M-835.708,33.368c0.087,0.084,0.076,0.235-0.023,0.337l0,0c-0.099,0.102-0.25,0.116-0.337,0.032
			l-3.764-3.669c-0.087-0.084-0.076-0.235,0.023-0.337l0,0c0.099-0.102,0.25-0.116,0.337-0.032L-835.708,33.368z"/>
	</g>
	<path fill="#3C3C3B" d="M-836.342,7.097c0,0.19-0.154,0.343-0.343,0.343h-14.226c-0.19,0-0.343-0.154-0.343-0.343V-7.129
		c0-0.19,0.154-0.343,0.343-0.343h14.226c0.19,0,0.343,0.154,0.343,0.343V7.097z"/>
	<circle fill="#FF7461" cx="-855.42" cy="0.63" r="0.646"/>
</g>
<path fill="#C2C2C2" d="M-234.778-111.26H-566.84c-5.059,0-9.16,4.511-9.16,10.076v28.983V130.57v1.208
	c0,4.898,4.101,8.869,9.16,8.869h332.062c5.059,0,9.16-3.971,9.16-8.869v-1.208V-72.201v-28.983
	C-225.618-106.749-229.719-111.26-234.778-111.26z"/>
<g>
	<path fill="#F3F4F6" d="M-220.059,122.669c0,5.653-4.166,10.236-9.306,10.236h-337.333c-5.139,0-9.306-4.583-9.306-10.236v-235.433
		c0-5.653,4.166-10.236,9.306-10.236h337.333c5.139,0,9.306,4.583,9.306,10.236V122.669z"/>
	<g>
		<defs>
			<path id="XMLID_15_" d="M-220.059,123.896c0,4.976-4.166,9.009-9.306,9.009h-337.333c-5.139,0-9.306-4.034-9.306-9.009V-83.32
				c0-4.976,4.166-9.009,9.306-9.009h337.333c5.139,0,9.306,4.034,9.306,9.009V123.896z"/>
		</defs>
		<use xlink:href="#XMLID_15_"  overflow="visible" fill="#FFFFFF"/>
		<clipPath id="XMLID_54_">
			<use xlink:href="#XMLID_15_"  overflow="visible"/>
		</clipPath>
		<rect x="-596.77" y="-100.657" clip-path="url(#XMLID_54_)" fill="#3C3E45" width="109.902" height="258.162"/>
	</g>
	<path fill="#FFE97B" d="M-238.565-12.615c0,1.851-0.602,3.351-1.345,3.351h-102.242c-0.743,0-1.345-1.5-1.345-3.351v-61.987
		c0-1.851,0.602-3.351,1.345-3.351h102.242c0.743,0,1.345,1.5,1.345,3.351V-12.615z"/>
	<path fill="#F3F4F6" d="M-238.565,66.23c0,1.851-0.602,3.351-1.345,3.351h-102.242c-0.743,0-1.345-1.5-1.345-3.351V4.243
		c0-1.851,0.602-3.351,1.345-3.351h102.242c0.743,0,1.345,1.5,1.345,3.351V66.23z"/>
	<path fill="#F3F4F6" d="M-351.979,117.453c0,2.579-0.699,4.67-1.561,4.67h-118.644c-0.862,0-1.561-2.091-1.561-4.67v-86.39
		c0-2.579,0.699-4.67,1.561-4.67h118.644c0.862,0,1.561,2.091,1.561,4.67V117.453z"/>
	<path fill="#F3F4F6" d="M-353.324-45.82c0,1.221-0.984,2.211-2.197,2.211H-407.7c-1.213,0-2.197-0.99-2.197-2.211v-30.402
		c0-1.221,0.984-2.211,2.197-2.211h52.179c1.213,0,2.197,0.99,2.197,2.211V-45.82z"/>
	<path fill="#F3F4F6" d="M-418.284-45.82c0,1.221-0.984,2.211-2.197,2.211h-52.179c-1.213,0-2.197-0.99-2.197-2.211v-30.402
		c0-1.221,0.984-2.211,2.197-2.211h52.179c1.213,0,2.197,0.99,2.197,2.211V-45.82z"/>
	<g>
		<circle fill="#E5332A" cx="-560.099" cy="-107.276" r="4.702"/>
		<circle fill="#F9DF6E" cx="-542.458" cy="-107.276" r="4.702"/>
		<circle fill="#2DAB66" cx="-524.816" cy="-107.276" r="4.702"/>
	</g>
	<path fill="#FFFFFF" d="M-270.898-103.634c0,1.644-1.854,2.977-4.14,2.977h-207.69c-2.286,0-4.14-1.333-4.14-2.977v-6.326
		c0-1.644,1.854-2.977,4.14-2.977h207.69c2.286,0,4.14,1.333,4.14,2.977V-103.634z"/>
	
		<rect x="-472.438" y="4.063" transform="matrix(0.9698 -0.2438 0.2438 0.9698 -15.1146 -111.8134)" fill="#42ADC6" width="26.287" height="2.19"/>
	
		<rect x="-453.669" y="-11.007" transform="matrix(0.6573 -0.7536 0.7536 0.6573 -142.0628 -332.2478)" fill="#42ADC6" width="34.597" height="2.19"/>
	
		<rect x="-425.458" y="-21.09" transform="matrix(0.9716 0.2368 -0.2368 0.9716 -16.5217 97.5691)" fill="#42ADC6" width="22.042" height="2.19"/>
	
		<rect x="-404.4" y="-21.478" transform="matrix(-0.9716 0.2368 -0.2368 -0.9716 -780.3971 52.964)" fill="#42ADC6" width="22.042" height="2.19"/>
	
		<rect x="-382.049" y="-25.152" transform="matrix(-0.9994 0.0348 -0.0348 -0.9994 -742.6695 -35.1829)" fill="#42ADC6" width="22.042" height="2.19"/>
	<circle fill="#42ADC6" cx="-446.814" cy="0.892" r="4.125"/>
	<circle fill="#42ADC6" cx="-425.404" cy="-22.579" r="4.125"/>
	<circle fill="#42ADC6" cx="-404.073" cy="-18.22" r="4.125"/>
	<circle fill="#42ADC6" cx="-382.497" cy="-23.828" r="4.125"/>
	
		<rect x="-451.44" y="-6.142" transform="matrix(0.8657 0.5006 -0.5006 0.8657 -60.8518 216.6714)" fill="#FCAF63" width="34.597" height="2.19"/>
	<g>
		
			<rect x="-473.85" y="-12.992" transform="matrix(0.9966 -0.0828 0.0828 0.9966 -0.5977 -38.2004)" fill="#FCAF63" width="26.287" height="2.19"/>
		
			<rect x="-421.147" y="-3.691" transform="matrix(0.8428 -0.5382 0.5382 0.8428 -63.0585 -221.1234)" fill="#FCAF63" width="22.042" height="2.19"/>
		
			<rect x="-401.094" y="-10.13" transform="matrix(-0.9959 0.09 -0.09 -0.9959 -779.3765 17.0718)" fill="#FCAF63" width="22.042" height="2.19"/>
		
			<rect x="-378.756" y="-13.88" transform="matrix(-0.957 0.2901 -0.2901 -0.957 -723.3612 81.6739)" fill="#FCAF63" width="22.042" height="2.19"/>
		<circle fill="#FCAF63" cx="-447.517" cy="-11.894" r="4.125"/>
		<circle fill="#FCAF63" cx="-419.668" cy="3.395" r="4.125"/>
		<circle fill="#FCAF63" cx="-400.892" cy="-7.626" r="4.125"/>
		<circle fill="#FCAF63" cx="-378.662" cy="-9.294" r="4.125"/>
	</g>
	<circle fill="#E4E9EA" cx="-530.317" cy="-44.727" r="25.079"/>
	<g>
		<defs>
			<circle id="XMLID_14_" cx="-530.317" cy="-44.727" r="21.565"/>
		</defs>
		<use xlink:href="#XMLID_14_"  overflow="visible" fill="#FFFFFF"/>
		<clipPath id="XMLID_55_">
			<use xlink:href="#XMLID_14_"  overflow="visible"/>
		</clipPath>
		<circle clip-path="url(#XMLID_55_)" fill="#E4E9EA" cx="-530.233" cy="-24.774" r="15.452"/>
		<circle clip-path="url(#XMLID_55_)" fill="#E4E9EA" cx="-530.317" cy="-48.716" r="9.509"/>
	</g>
	<g>
		<g>
			<g>
				<g>
					<path fill="#46D3AE" d="M-530.32,28.31l-23.915,7.77c-4.292-13.208,2.937-27.394,16.145-31.686
						c2.642-0.858,4.993-1.231,7.77-1.231V28.31z"/>
				</g>
			</g>
			<g>
				<g>
					<path fill="#FFE97B" d="M-530.32,28.31l23.915,7.77c-4.292,13.208-18.478,20.436-31.686,16.145
						c-7.925-2.575-13.57-8.22-16.145-16.145L-530.32,28.31z"/>
				</g>
			</g>
			<g>
				<g>
					<g>
						<path fill="#FCAF63" d="M-530.32,28.31l14.78-20.343c8.988,6.53,12.568,17.548,9.135,28.114L-530.32,28.31z"/>
					</g>
				</g>
			</g>
			<g>
				<g>
					<g>
						<path fill="#42ADC6" d="M-530.32,28.31V3.164c5.555,0,10.286,1.537,14.78,4.802L-530.32,28.31z"/>
					</g>
				</g>
			</g>
		</g>
		<circle fill="#3C3E45" cx="-530.32" cy="28.31" r="12.348"/>
	</g>
	<g>
		<text transform="matrix(1 0 0 1 -451.5645 -53.0333)" fill="#46D3AE" font-family="'BentonSans-Medium'" font-size="23.0027">6</text>
	</g>
	<g>
		<text transform="matrix(1 0 0 1 -393.3303 -53.0333)" fill="#42ADC6" font-family="'BentonSans-Medium'" font-size="23.0027">21</text>
	</g>
	<g>
		<circle fill="#FF7461" cx="-451.262" cy="46.997" r="9.367"/>
		<circle fill="#FCAF63" cx="-398.334" cy="46.997" r="9.367"/>
		<g>
			<g>
				<defs>
					<circle id="XMLID_47_" cx="-372.216" cy="46.997" r="9.367"/>
				</defs>
				<clipPath id="XMLID_56_">
					<use xlink:href="#XMLID_47_"  overflow="visible"/>
				</clipPath>
			</g>
			<g>
				<defs>
					<circle id="XMLID_44_" cx="-372.216" cy="46.997" r="9.367"/>
				</defs>
				<use xlink:href="#XMLID_44_"  overflow="visible" fill="#FF8395"/>
				<clipPath id="XMLID_57_">
					<use xlink:href="#XMLID_44_"  overflow="visible"/>
				</clipPath>
				<polyline opacity="0.2" clip-path="url(#XMLID_57_)" fill="#FF8395" points="-366.434,45.053 -361.099,50.78 -370.802,57.336 
					-377.311,49.555 -366.442,45.186 				"/>
				<path id="XMLID_46_" opacity="0.2" clip-path="url(#XMLID_57_)" fill="#FF8395" d="M-372.216,37.63
					c5.173,0,9.367,4.194,9.367,9.367"/>
			</g>
			<g>
				<defs>
					<circle id="XMLID_41_" cx="-372.216" cy="46.997" r="9.367"/>
				</defs>
				<clipPath id="XMLID_58_">
					<use xlink:href="#XMLID_41_"  overflow="visible"/>
				</clipPath>
			</g>
		</g>
		<g>
			<defs>
				<circle id="XMLID_5_" cx="-424.519" cy="46.997" r="9.367"/>
			</defs>
			<use xlink:href="#XMLID_5_"  overflow="visible" fill="#46D3AE"/>
			<clipPath id="XMLID_59_">
				<use xlink:href="#XMLID_5_"  overflow="visible"/>
			</clipPath>
		</g>
	</g>
	<g opacity="0.6">
		<circle fill="#DADADA" cx="-451.262" cy="74.44" r="9.367"/>
		<circle fill="#DADADA" cx="-398.334" cy="74.44" r="9.367"/>
		<g>
			<g>
				<defs>
					<circle id="XMLID_50_" cx="-372.216" cy="74.44" r="9.367"/>
				</defs>
				<clipPath id="XMLID_60_">
					<use xlink:href="#XMLID_50_"  overflow="visible"/>
				</clipPath>
			</g>
			<g>
				<defs>
					<circle id="XMLID_48_" cx="-372.216" cy="74.44" r="9.367"/>
				</defs>
				<use xlink:href="#XMLID_48_"  overflow="visible" fill="#DADADA"/>
				<clipPath id="XMLID_61_">
					<use xlink:href="#XMLID_48_"  overflow="visible"/>
				</clipPath>
				<polyline opacity="0.2" clip-path="url(#XMLID_61_)" fill="#DADADA" points="-366.434,72.495 -361.099,78.223 -370.802,84.779 
					-377.311,76.997 -366.442,72.629 				"/>
				<path id="XMLID_49_" opacity="0.2" clip-path="url(#XMLID_61_)" fill="#DADADA" d="M-372.216,65.073
					c5.173,0,9.367,4.194,9.367,9.367"/>
			</g>
			<g>
				<defs>
					<circle id="XMLID_45_" cx="-372.216" cy="74.44" r="9.367"/>
				</defs>
				<clipPath id="XMLID_62_">
					<use xlink:href="#XMLID_45_"  overflow="visible"/>
				</clipPath>
			</g>
		</g>
		<g>
			<defs>
				<circle id="XMLID_4_" cx="-424.519" cy="74.44" r="9.367"/>
			</defs>
			<use xlink:href="#XMLID_4_"  overflow="visible" fill="#DADADA"/>
			<clipPath id="XMLID_63_">
				<use xlink:href="#XMLID_4_"  overflow="visible"/>
			</clipPath>
		</g>
	</g>
	<g opacity="0.6">
		<circle fill="#DADADA" cx="-451.262" cy="101.561" r="9.367"/>
		<circle fill="#DADADA" cx="-398.334" cy="101.561" r="9.367"/>
		<g>
			<g>
				<defs>
					<circle id="XMLID_53_" cx="-372.216" cy="101.561" r="9.367"/>
				</defs>
				<clipPath id="XMLID_64_">
					<use xlink:href="#XMLID_53_"  overflow="visible"/>
				</clipPath>
			</g>
			<g>
				<defs>
					<circle id="XMLID_51_" cx="-372.216" cy="101.561" r="9.367"/>
				</defs>
				<use xlink:href="#XMLID_51_"  overflow="visible" fill="#DADADA"/>
				<clipPath id="XMLID_65_">
					<use xlink:href="#XMLID_51_"  overflow="visible"/>
				</clipPath>
				<polyline opacity="0.2" clip-path="url(#XMLID_65_)" fill="#DADADA" points="-366.434,99.616 -361.099,105.344 -370.802,111.9 
					-377.311,104.118 -366.442,99.749 				"/>
				<path id="XMLID_52_" opacity="0.2" clip-path="url(#XMLID_65_)" fill="#DADADA" d="M-372.216,92.194
					c5.173,0,9.367,4.194,9.367,9.367"/>
			</g>
			<g>
				<defs>
					<circle id="XMLID_42_" cx="-372.216" cy="101.561" r="9.367"/>
				</defs>
				<clipPath id="XMLID_66_">
					<use xlink:href="#XMLID_42_"  overflow="visible"/>
				</clipPath>
			</g>
		</g>
		<g>
			<defs>
				<circle id="XMLID_13_" cx="-424.519" cy="101.561" r="9.367"/>
			</defs>
			<use xlink:href="#XMLID_13_"  overflow="visible" fill="#DADADA"/>
			<clipPath id="XMLID_67_">
				<use xlink:href="#XMLID_13_"  overflow="visible"/>
			</clipPath>
		</g>
	</g>
</g>
<g>
	<path fill="#1B1D1E" d="M45.233,16.055L34.394,4.628c-1.792-1.889-4.188-3.103-6.766-3.449l-0.09-0.094l-0.102,0.064
		c-0.012-0.002-0.024-0.004-0.037-0.006c-2.38-0.27-4.788,0.257-6.871,1.428l0.18-0.137l-0.18,0.137
		c-0.166,0.094-0.345,0.161-0.507,0.263l-13.07,8.257c-3.901,2.465-5.925,6.997-5.156,11.546l2.92,15.133
		c0.842,4.987,4.943,8.837,9.969,9.406l14.808,1.678c4.985,0.565,9.829-2.236,11.787-6.854l6.182-13.656
		C49.233,24.164,48.357,19.35,45.233,16.055z"/>
	<path fill="#FFFFFF" d="M37.148,17.48c1.477,3.731,3.299,23.197-5.482,20.203c-8.325-2.839-2.262-20.526-6.222-15.857
		c-1.346,1.587-2.826,5.014-3.042,6.504c-0.259,1.783-0.344-2.241-2.28-2.972c-3.381-1.276-5.403,3.944-3.069-2.075
		c1.623-4.184,6.311-10.288,10.108-8.968c6.469,2.247,2.492,18.727,5.306,19.705C37.781,35.866,36.121,14.885,37.148,17.48z"/>
	<path fill="#FFFFFF" d="M19.378,27.051c-0.589-0.329-1.345-0.284-1.873,0.089l-1.821,1.255l-2.066-0.789
		c-0.62-0.237-1.335-0.106-1.841,0.356c-0.499,0.463-0.689,1.156-0.495,1.809l0.63,2.12l-1.388,1.721
		c-0.428,0.53-0.516,1.243-0.229,1.861c0.286,0.618,0.886,1.013,1.567,1.03l2.211,0.055l1.207,1.853
		c0.372,0.57,1.023,0.874,1.7,0.793c0.218-0.026,0.426-0.092,0.62-0.194c0.394-0.209,0.694-0.556,0.843-0.978l0.736-2.085
		l2.136-0.577c0.655-0.179,1.149-0.715,1.278-1.371c0.132-0.669-0.123-1.34-0.663-1.754L20.174,30.9l0.112-2.209
		C20.321,28.011,19.972,27.382,19.378,27.051z"/>
</g>
</svg>
